<svg xmlns="http://www.w3.org/2000/svg" viewBox="0 0 32 32">
  <defs>
    <linearGradient id="grad" x1="0%" y1="0%" x2="100%" y2="100%">
      <stop offset="0%" style="stop-color:#0078d4"/>
      <stop offset="100%" style="stop-color:#00a8ff"/>
    </linearGradient>
  </defs>
  <rect width="32" height="32" rx="6" fill="url(#grad)"/>
  <path d="M16 6c-4.4 0-8 3.6-8 8 0 1.2.3 2.4.8 3.4L8 22l4.6-.8c1 .5 2.2.8 3.4.8 4.4 0 8-3.6 8-8s-3.6-8-8-8zm0 14c-1 0-2-.2-2.9-.6l-.2-.1-2.1.4.4-2.1-.1-.2c-.4-.9-.6-1.9-.6-2.9 0-3.3 2.7-6 6-6s6 2.7 6 6-2.7 5.5-5.5 5.5z" fill="none"/>
  <path d="M10 8h12v2H10zM10 12h8v2H10zM10 16h10v2H10zM16 20l4 4H12l4-4z" fill="white" opacity="0.9"/>
</svg>
